<svg width="96" height="96" viewBox="0 0 96 96" fill="none" xmlns="http://www.w3.org/2000/svg">
<g clip-path="url(#clip0_128_13251)">
<path fill-rule="evenodd" clip-rule="evenodd" d="M74.5752 15.0751C74.5752 11.6632 71.7929 8.88086 68.381 8.88086H25.1841C25.1028 8.88086 24.5443 8.91132 24.5443 8.92148C21.4371 9.24642 19 11.8866 19 15.0852V78.9871C19 82.1857 21.4371 84.8259 24.5443 85.1508C24.5443 85.1508 24.8185 85.1711 24.9505 85.1711L41.1367 85.1813V79.6979H25.1942C25.152 79.6979 25.1146 79.6881 25.0787 79.6787C25.0629 79.6746 25.0473 79.6705 25.0317 79.6674C24.7474 79.5557 24.4834 79.1495 24.4834 78.6317V15.4305C24.4834 14.9126 24.7474 14.5064 25.0317 14.3947C25.0473 14.3916 25.0629 14.3875 25.0787 14.3834L25.0787 14.3834L25.0787 14.3834C25.1146 14.374 25.152 14.3643 25.1942 14.3643H68.3708C68.7669 14.3643 69.0817 14.679 69.0817 15.0751V61.298H74.5651V15.0751H74.5752ZM60.8323 67H57.8704L47.7832 87.7539H52.9161L54.7516 83.761H63.425L63.9783 84.9813L63.9796 84.984C64.4423 85.9899 64.9868 86.7001 65.6734 87.1507C66.3643 87.604 67.1373 87.7539 67.9755 87.7539H71.6066L70.8785 86.8633C70.4249 86.3085 69.6023 85.0061 68.4118 82.5637L60.8323 67ZM77.7832 67H72.547V87.7539H77.7832V67ZM61.5563 79.6947H56.6223L59.0893 74.3153L61.5563 79.6947ZM56.8459 32.5609C57.8413 32.1366 58.9132 31.7894 60.0426 31.5579H60.0522L63 30.96L41.8484 56.96L32 43.3428H34.7086C35.7613 43.3621 36.6993 43.5068 37.5224 43.7671C38.7666 44.1529 39.7428 44.8087 40.4032 45.7152L42.1164 48.0876L51.4767 36.5535C52.8836 34.8176 54.7116 33.4771 56.8459 32.5609Z" fill="#051766"/>
</g>
<defs>
<clipPath id="clip0_128_13251">
<rect width="96" height="96" fill="white"/>
</clipPath>
</defs>
</svg>
