<svg width="96" height="96" viewBox="0 0 96 96" fill="none" xmlns="http://www.w3.org/2000/svg">
<g clip-path="url(#clip0_247_15437)">
<path d="M33.9054 19.7049L33.9054 16.7567L34.8127 17.6639L35.0099 17.8602L50.133 32.9832L50.1183 32.9979L65.0744 48.0301L50.1027 62.8367L50.132 62.866L35.0099 77.9891L34.8127 78.1854L33.9054 79.0926L33.9054 76.1434C33.8106 74.5915 34.0294 73.0364 34.549 71.5711C35.0687 70.1056 35.8784 68.7596 36.9299 67.6141L45.9133 58.6317L45.9338 58.6531L56.6965 47.9998L45.9406 37.1756L45.9133 37.2029L36.9299 28.2342C35.8764 27.0903 35.0658 25.7448 34.5461 24.2791C34.0263 22.8133 33.8079 21.2571 33.9054 19.7049Z" fill="#5e5e5e"/>
</g>
<defs>
<clipPath id="clip0_247_15437">
<rect width="96" height="96" fill="white" transform="translate(0 96) rotate(-90)"/>
</clipPath>
</defs>
</svg>
