<svg width="96" height="96" viewBox="0 0 96 96" fill="none" xmlns="http://www.w3.org/2000/svg">
<g clip-path="url(#clip0_168_15012)">
<path d="M77.6407 61.6272C76.3207 58.9769 74.5538 56.8445 71.0911 54.4887C63.9323 49.6247 54.4988 48.5991 52.1937 48.396C52.5898 48.5991 53.128 48.8631 53.2803 48.9443C54.8237 49.7465 58.6621 51.95 59.0074 52.1531C67.1106 56.7328 71.9746 60.2564 72.8682 64.704C72.9189 64.9477 72.9392 65.2016 72.9392 65.5265V77.1026H23.0607V65.6788C23.0607 65.2828 23.1013 64.9376 23.1825 64.6126C23.9035 61.8608 25.711 59.5151 28.2801 58.0021L55.3315 41.3488C60.4087 38.2923 63.1808 32.7277 62.5716 26.828C61.7795 19.1106 55.3416 13.3429 47.5735 13.3429C47.5024 13.3429 47.4415 13.3429 47.3704 13.3429C40.4349 13.4343 32.7175 19.1715 32.7175 27.2646C32.7175 30.1079 33.0019 33.4081 36.3325 36.7184C38.1502 38.5157 41.1356 39.5109 44.3241 39.3789L45.2684 39.3382L44.4865 38.8102C42.019 37.1246 37.8354 33.073 37.8354 28.5644C37.8354 23.5176 41.0645 19.6285 45.8777 18.8771C50.9447 18.085 55.7072 21.1415 56.946 25.9852C57.9919 30.0774 56.3774 34.2103 52.8335 36.5153L25.4064 53.0975C21.6594 55.3213 18.8567 59.0378 17.7296 63.3027C17.5874 63.8307 17.5164 64.9274 17.5164 65.5062V82.6469H78.4937V65.3539C78.4937 65.2524 78.5343 64.6532 78.4328 63.9221C78.3211 63.1301 78.0165 62.3583 77.6407 61.6069V61.6272Z" fill="#051766"/>
</g>
<defs>
<clipPath id="clip0_168_15012">
<rect width="96" height="96" fill="white"/>
</clipPath>
</defs>
</svg>
