<svg width="96" height="96" viewBox="0 0 96 96" fill="none" xmlns="http://www.w3.org/2000/svg">
<g clip-path="url(#clip0_128_13200)">
<path fill-rule="evenodd" clip-rule="evenodd" d="M61.8601 34.1266C62.6601 33.1766 63.0399 31.9666 62.9299 30.7366C62.8199 29.4966 62.24 28.3766 61.29 27.5766L49.99 18.0866C48.03 16.4366 45.0899 16.6966 43.4399 18.6566L13 54.9466L15.6201 70.5366L31.4202 70.4066L61.8601 34.1166V34.1266ZM20.02 65.2966L18.54 56.4666L37.6602 33.6766L38.6001 34.4666L38.6098 34.4551C40.8585 36.3394 43.8147 37.2964 47.1497 37.2265L49.9395 37.1565L41.9495 30.4565L41.9398 30.4681L41.01 29.6866L47.0701 22.4566L57.51 31.2166L28.98 65.2366L20.03 65.3066L20.02 65.2966ZM82.0901 78.6666H16.21V83.8766H82.0901V78.6666Z" fill="#051766"/>
</g>
<defs>
<clipPath id="clip0_128_13200">
<rect width="96" height="96" fill="#ffffff"/>
</clipPath>
</defs>
</svg>
