<svg width="96" height="96" viewBox="0 0 96 96" fill="none" xmlns="http://www.w3.org/2000/svg">
<g clip-path="url(#clip0_128_13185)">
<path fill-rule="evenodd" clip-rule="evenodd" d="M48.4198 12.7305C57.7298 12.7305 66.8398 16.5205 73.4098 23.1405V23.1505C80.0598 29.7505 83.8598 38.9105 83.8198 48.2905C83.8498 57.6505 80.0598 66.8205 73.3998 73.4205C66.8398 80.0305 57.7298 83.8205 48.3898 83.8205H48.1298C38.8098 83.8205 29.6998 80.0305 23.1298 73.4005C16.4898 66.8105 12.6898 57.6405 12.7298 48.2605C12.6998 38.9005 16.4898 29.7305 23.1498 23.1305C29.7098 16.5205 38.8198 12.7305 48.1598 12.7305H48.4198ZM48.3698 78.4205C56.1798 78.4205 64.0998 75.1305 69.5798 69.6005H69.5698C75.1398 64.0805 78.4398 56.1205 78.4098 48.2905C78.4398 40.4405 75.1398 32.4805 69.5898 26.9705L69.5698 26.9505C64.0898 21.4205 56.1698 18.1305 48.3798 18.1305H48.1698C40.3598 18.1305 32.4398 21.4205 26.9598 26.9505C21.3898 32.4705 18.0898 40.4305 18.1198 48.2605C18.0898 56.1105 21.3898 64.0705 26.9398 69.5805C32.4398 75.1305 40.3598 78.4205 48.1498 78.4205H48.2598H48.3698ZM51.0198 48.2703H63.1798C65.3198 48.2703 67.4098 49.5003 69.2298 51.8303L70.7498 53.7703H45.5098V25.7803L47.4598 27.8003C49.7898 30.2203 51.0198 33.0003 51.0198 35.8303V48.2703Z" fill="#051766"/>
</g>
<defs>
<clipPath id="clip0_128_13185">
<rect width="96" height="96" fill="white"/>
</clipPath>
</defs>
</svg>
