<svg width="96" height="96" viewBox="0 0 96 96" fill="none" xmlns="http://www.w3.org/2000/svg">
<g clip-path="url(#clip0_145_13099)">
<path fill-rule="evenodd" clip-rule="evenodd" d="M71.7208 34.5455C70.2549 35.0653 68.9095 35.8764 67.7655 36.9301L58.7976 45.913L58.8248 45.9403L48 56.6959L37.3471 45.9345L37.3687 45.9129L28.3857 36.9299C27.2402 35.8785 25.8946 35.0687 24.4291 34.5491C22.9636 34.0294 21.4084 33.8105 19.8564 33.9054H16.9075L17.8148 34.8127L18.0114 35.0093L33.1343 50.1322L33.1636 50.103L47.9697 65.0739L63.0025 50.1179L63.0169 50.1323L68.636 44.5132L68.7032 44.4464L68.703 44.4462L78.1397 35.0095L78.3363 34.8129L79.2437 33.9055H76.2948C74.7425 33.808 73.1866 34.0257 71.7208 34.5455Z" fill="#051766"/>
</g>
<defs>
<clipPath id="clip0_145_13099">
<rect width="96" height="96" fill="white"/>
</clipPath>
</defs>
</svg>
