<svg width="96" height="96" viewBox="0 0 96 96" fill="none" xmlns="http://www.w3.org/2000/svg">
<g clip-path="url(#clip0_128_13192)">
<path d="M80.3119 70.0453L82.2311 67.8723C84.526 65.2626 85.7343 62.2569 85.7343 59.2004V31.2351C85.7343 27.7927 82.9419 25.0003 79.4995 25.0003H71.0409V17.75H65.6184V25.0003H30.3825V17.75H24.9601V25.0003H16.5014C13.0591 25.0003 10.2666 27.7927 10.2666 31.2351V72.0254C10.2666 75.4678 13.0591 78.2603 16.5014 78.2603L74.7066 78.24C77.6819 78.179 80.5962 76.9808 83.145 74.7468L85.318 72.8276H16.5014C16.0546 72.8378 15.6891 72.4824 15.6891 72.0254V45.695H80.3119V70.0453ZM15.6891 40.2725V31.2249C15.6891 30.7781 16.0546 30.4126 16.5014 30.4126H24.9601V35.3375H30.3825V30.4126H65.6184V35.3375H71.0409V30.4126H79.4995C79.9463 30.4126 80.3119 30.7781 80.3119 31.2249V40.2725H15.6891Z" fill="#051766"/>
</g>
<defs>
<clipPath id="clip0_128_13192">
<rect width="96" height="96" fill="white"/>
</clipPath>
</defs>
</svg>
