<svg width="96" height="96" viewBox="0 0 96 96" fill="none" xmlns="http://www.w3.org/2000/svg">
<g clip-path="url(#clip0_128_13220)">
<path fill-rule="evenodd" clip-rule="evenodd" d="M47.9824 76.2624C32.3993 76.2624 19.7211 63.5841 19.7211 48.001C19.7211 32.4163 32.3993 19.7381 47.9824 19.7381C63.5656 19.7381 76.2438 32.4163 76.2438 48.001C76.2438 63.5841 63.5656 76.2624 47.9824 76.2624ZM47.9824 14.1445C29.3144 14.1445 14.126 29.3315 14.126 48.001C14.126 66.669 29.3144 81.856 47.9824 81.856C66.6505 81.856 81.8389 66.669 81.8389 48.001C81.8389 29.3315 66.6505 14.1445 47.9824 14.1445ZM50.9447 53.3601L51.8992 31H44.1006L45.0653 53.3601H50.9447ZM43.5215 61.4937C43.5215 59.0871 45.2579 57.0156 47.9996 57.0156C50.7413 57.0156 52.4777 59.0871 52.4777 61.4937C52.4777 63.9003 50.7413 65.9718 47.9996 65.9718C45.2579 65.9718 43.5215 63.9003 43.5215 61.4937Z" fill="#051766"/>
</g>
<defs>
<clipPath id="clip0_128_13220">
<rect width="96" height="96" fill="white"/>
</clipPath>
</defs>
</svg>
