<svg width="96" height="96" viewBox="0 0 96 96" fill="none" xmlns="http://www.w3.org/2000/svg">
<g clip-path="url(#clip0_168_14996)">
<g clip-path="url(#clip1_168_14996)">
<path d="M77.8957 26.9814V82.3776C77.8715 82.5505 77.8475 82.7234 77.8236 82.8963C77.5817 84.5896 76.781 85.9796 75.4825 87.0744C73.9246 88.3875 72.1035 88.9995 70.0744 89C55.3237 89 40.5725 88.9992 25.8208 88.9976C25.4185 89.003 25.0164 88.9792 24.6176 88.9265C23.0389 88.6967 21.6092 88.1093 20.3939 87.0604C19.239 86.0633 18.4456 84.8402 18.1553 83.322C18.0953 83.0085 18.0513 82.6931 18 82.3776V13.6766C18.0252 13.4956 18.0484 13.3147 18.076 13.1342C18.3459 11.3059 19.2579 9.85448 20.7132 8.73881C22.2232 7.58348 23.948 7.05322 25.8416 7.05322C35.9645 7.05322 46.0871 7.05322 56.2094 7.05322C56.3433 7.04435 56.4765 7.02657 56.608 7H56.7048C56.757 7.07639 56.8147 7.14883 56.8775 7.21675C59.1337 9.34551 61.3915 11.4722 63.6509 13.5967C65.9922 15.7984 68.3348 17.9991 70.6787 20.1988C72.5327 21.9425 74.3852 23.6876 76.2362 25.4341C76.7853 25.9528 77.3417 26.4656 77.8957 26.9814ZM47.9532 65.7074H65.9025C66.2533 65.7074 66.2538 65.7075 66.2538 65.3499V39.5411C66.2538 39.17 66.2538 39.169 65.8793 39.169H30.0067C29.6439 39.169 29.6434 39.169 29.6434 39.5275V65.3364C29.6434 65.7075 29.6434 65.7074 30.0057 65.7074H47.9532Z" fill="#34A853"/>
<path d="M56.7051 7C57.259 7.51574 57.8178 8.02858 58.3665 8.54819C60.2201 10.2922 62.0726 12.0373 63.924 13.7835C66.2657 15.9858 68.6083 18.1865 70.9518 20.3856C73.2096 22.5105 75.4674 24.6371 77.7252 26.7656C77.7873 26.8333 77.8444 26.9054 77.896 26.9814H56.7051V7Z" fill="#188038"/>
<path d="M47.9543 65.7064H30.005C29.6431 65.7064 29.6426 65.7064 29.6426 65.3353V39.5265C29.6426 39.1689 29.6426 39.168 30.0059 39.168H65.879C66.253 39.168 66.2534 39.168 66.2534 39.54V65.3489C66.2534 65.7064 66.2534 65.7064 65.9022 65.7064H47.9543ZM39.821 50.4286C41.7722 50.4286 43.7234 50.4257 45.6751 50.433C45.8865 50.433 45.9504 50.3754 45.9499 50.1606C45.9421 47.9351 45.9421 45.7096 45.9499 43.484C45.9499 43.2586 45.885 43.1986 45.6639 43.1991C41.7699 43.2049 37.8756 43.2049 33.9809 43.1991C33.7521 43.1991 33.6761 43.2586 33.6771 43.4956C33.6848 45.7047 33.6848 47.9141 33.6771 50.1238C33.6771 50.372 33.7506 50.4349 33.993 50.434C35.935 50.4248 37.878 50.4286 39.821 50.4286ZM56.0939 43.2044C54.1509 43.2044 52.208 43.2083 50.2645 43.1996C50.0298 43.1996 49.9457 43.2479 49.9466 43.5029C49.9573 45.712 49.9573 47.9214 49.9466 50.1311C49.9466 50.3875 50.0298 50.4349 50.2645 50.4345C54.1427 50.4277 58.0209 50.4261 61.8992 50.4296C62.2151 50.4296 62.2161 50.4296 62.2161 50.1069C62.2161 47.9136 62.2161 45.7204 62.2161 43.5271C62.2161 43.2054 62.2161 43.2044 61.8992 43.2044H56.0939ZM39.821 61.6971C41.7712 61.6971 43.7219 61.6942 45.6722 61.7014C45.8792 61.7014 45.9499 61.653 45.9494 61.4329C45.9417 59.2006 45.9417 56.9683 45.9494 54.736C45.9494 54.5212 45.8836 54.4612 45.6736 54.4617C41.7731 54.4665 37.8727 54.4665 33.9722 54.4617C33.7569 54.4617 33.6766 54.5197 33.6776 54.7471C33.685 56.9727 33.685 59.1971 33.6776 61.4203C33.6776 61.6477 33.753 61.7024 33.9707 61.7019C35.9205 61.6942 37.8707 61.6971 39.821 61.6971ZM56.077 61.6971C58.019 61.6971 59.9615 61.6932 61.9035 61.7024C62.1396 61.7024 62.2252 61.654 62.2243 61.3981C62.2146 59.1893 62.2146 56.981 62.2243 54.7733C62.2243 54.526 62.1478 54.4602 61.9069 54.4607C58.0226 54.4675 54.138 54.4675 50.2534 54.4607C50.0255 54.4607 49.9495 54.5193 49.9505 54.7573C49.9592 56.9735 49.9592 59.1898 49.9505 61.4063C49.9505 61.6429 50.0207 61.7024 50.2505 61.7014C52.1905 61.6937 54.1326 61.6971 56.077 61.6971Z" fill="white"/>
<path d="M39.8192 50.4288C37.8757 50.4288 35.9327 50.4249 33.9898 50.4341C33.7479 50.4341 33.6729 50.3722 33.6738 50.124C33.6825 47.9149 33.6825 45.7055 33.6738 43.4958C33.6738 43.2587 33.7488 43.1987 33.9777 43.1992C37.8717 43.2057 41.766 43.2057 45.6607 43.1992C45.8818 43.1992 45.9476 43.2587 45.9466 43.4842C45.9389 45.7097 45.9389 47.9352 45.9466 50.1608C45.9466 50.3756 45.8833 50.4341 45.6718 50.4332C43.7221 50.4259 41.7709 50.4288 39.8192 50.4288Z" fill="#34A853"/>
<path d="M56.0941 43.2041H61.8998C62.2157 43.2041 62.2167 43.2041 62.2167 43.5268C62.2167 45.72 62.2167 47.9133 62.2167 50.1066C62.2167 50.4283 62.2167 50.4293 61.8998 50.4293C58.0216 50.4293 54.1434 50.4309 50.2651 50.4341C50.0305 50.4341 49.9463 50.3857 49.9473 50.1308C49.9579 47.9217 49.9579 45.7123 49.9473 43.5026C49.9473 43.2462 50.0305 43.1983 50.2651 43.1992C52.2062 43.2079 54.1511 43.2041 56.0941 43.2041Z" fill="#34A853"/>
<path d="M39.8177 61.6983C37.8675 61.6983 35.9173 61.6954 33.967 61.7031C33.7493 61.7031 33.6729 61.6489 33.6738 61.4215C33.6813 59.196 33.6813 56.9716 33.6738 54.7483C33.6738 54.5209 33.7532 54.4629 33.9685 54.4629C37.869 54.4677 41.7694 54.4677 45.6699 54.4629C45.8799 54.4629 45.9467 54.5224 45.9457 54.7372C45.9389 56.9695 45.9389 59.2018 45.9457 61.4341C45.9457 61.6528 45.8755 61.7031 45.6685 61.7026C43.7187 61.6954 41.768 61.6983 39.8177 61.6983Z" fill="#34A853"/>
<path d="M56.0762 61.6988C54.1337 61.6988 52.1917 61.6954 50.2492 61.7036C50.0194 61.7036 49.9483 61.6451 49.9492 61.4085C49.9579 59.1923 49.9579 56.976 49.9492 54.7595C49.9492 54.5214 50.0242 54.4624 50.2521 54.4629C54.1364 54.4687 58.021 54.4687 61.9056 54.4629C62.1475 54.4629 62.224 54.5282 62.223 54.7754C62.2143 56.9835 62.2143 59.1918 62.223 61.4002C62.223 61.6547 62.1383 61.7055 61.9022 61.7046C59.9588 61.6949 58.0163 61.6988 56.0762 61.6988Z" fill="#34A853"/>
</g>
</g>
<defs>
<clipPath id="clip0_168_14996">
<rect width="96" height="96" fill="white"/>
</clipPath>
<clipPath id="clip1_168_14996">
<rect width="96" height="96" fill="white"/>
</clipPath>
</defs>
</svg>
