<svg width="96" height="96" viewBox="0 0 96 96" fill="none" xmlns="http://www.w3.org/2000/svg">
<path fill-rule="evenodd" clip-rule="evenodd" d="M49.1053 1.5C51.5905 1.5 53.6053 3.51472 53.6053 6V16.6329C53.6053 19.1182 51.5905 21.1329 49.1053 21.1329C46.62 21.1329 44.6053 19.1182 44.6053 16.6329V6C44.6053 3.51472 46.62 1.5 49.1053 1.5ZM15.4838 15.4639C17.2069 13.6729 20.0556 13.6178 21.8466 15.3408L31.2251 24.3631C33.0161 26.0861 33.0712 28.9348 31.3482 30.7259C29.6252 32.5169 26.7765 32.5721 24.9855 30.849L15.607 21.8267C13.8159 20.1037 13.7608 17.255 15.4838 15.4639ZM81.8111 16.3448C83.5341 18.1358 83.479 20.9845 81.6879 22.7076L75.4356 28.7225C73.6446 30.4455 70.7959 30.3903 69.0728 28.5993C67.3498 26.8083 67.4049 23.9596 69.196 22.2365L75.4483 16.2217C77.2393 14.4986 80.088 14.5538 81.8111 16.3448ZM1.5 47.4684C1.5 44.9831 3.51472 42.9684 6 42.9684H21.4737C23.959 42.9684 25.9737 44.9831 25.9737 47.4684C25.9737 49.9536 23.959 51.9684 21.4737 51.9684H6C3.51472 51.9684 1.5 49.9536 1.5 47.4684ZM78.8684 47.4684C78.8684 44.9831 80.8831 42.9684 83.3684 42.9684H90C92.4853 42.9684 94.5 44.9831 94.5 47.4684C94.5 49.9536 92.4853 51.9684 90 51.9684H83.3684C80.8831 51.9684 78.8684 49.9536 78.8684 47.4684ZM33.5588 62.4245C35.2818 64.2155 35.2266 67.0642 33.4356 68.7873L20.931 80.817C19.1399 82.5401 16.2912 82.4849 14.5682 80.6939C12.8452 78.9028 12.9003 76.0541 14.6914 74.3311L27.196 62.3013C28.987 60.5783 31.8357 60.6335 33.5588 62.4245ZM71.2834 68.8042C73.0064 67.0132 75.8551 66.9581 77.6461 68.6811L80.7723 71.6885C82.5633 73.4116 82.6185 76.2603 80.8954 78.0513C79.1724 79.8423 76.3237 79.8975 74.5327 78.1745L71.4065 75.167C69.6155 73.444 69.5603 70.5953 71.2834 68.8042ZM49.1053 68.4873C51.5905 68.4873 53.6053 70.5021 53.6053 72.9873V90C53.6053 92.4853 51.5905 94.5 49.1053 94.5C46.62 94.5 44.6053 92.4853 44.6053 90V72.9873C44.6053 70.5021 46.62 68.4873 49.1053 68.4873Z" fill="#b33c00"/>
</svg>
